<?xml version="1.0" encoding="utf-8"?>
<!-- Uploaded to: SVG Repo, www.svgrepo.com, Generator: SVG Repo Mixer Tools -->
<svg width="800px" height="800px" viewBox="0 -54 1132 1132" class="icon"  version="1.1" xmlns="http://www.w3.org/2000/svg"><path d="M567.946541 498.230212m-449.210729 0a449.210729 449.210729 0 1 0 898.421459 0 449.210729 449.210729 0 1 0-898.421459 0Z" fill="#4766AC" /><path d="M974.667294 689.043576c-71.800471 152.636235-227.002729 258.397365-406.720753 258.397365-247.928471 0-449.210729-201.282259-449.210729-449.210729a446.969976 446.969976 0 0 1 79.366023-254.891671 447.066353 447.066353 0 0 0-42.477929 190.813365c0 247.928471 201.282259 449.210729 449.210729 449.210729 153.298824 0 288.755953-76.956612 369.832659-194.319059z" fill="#3F5A98" /><path d="M974.667294 689.043576c-81.076706 117.362447-216.533835 194.319059-369.832659 194.319059-247.928471 0-449.210729-201.282259-449.210729-449.210729a447.066353 447.066353 0 0 1 42.477929-190.813365 452.523671 452.523671 0 0 1 36.370071-45.947482c-1.264941 4.818824-2.4576 9.661741-3.56593 14.5408a447.861459 447.861459 0 0 0-26.443294 152.106165c0 247.916424 201.282259 449.210729 449.21073 449.210729 130.373271 0 247.856188-55.669459 329.944847-144.504471a442.849882 442.849882 0 0 1-8.950965 20.299294z" fill="#32539D" /><path d="M983.618259 668.744282c-82.088659 88.835012-199.571576 144.504471-329.944847 144.504471-247.928471 0-449.210729-201.294306-449.21073-449.210729 0-53.380518 9.324424-104.592565 26.443294-152.106165a449.825129 449.825129 0 0 0-11.155576 99.821929c0 247.928471 201.294306 449.210729 449.210729 449.21073 132.264659 0 251.253459-57.283765 333.486683-148.371577a446.476047 446.476047 0 0 1-18.829553 56.151341z" fill="#3A5AA3" /><path d="M299.297129 835.764706c-66.427482-40.164894-91.099859-60.259388-128.469835-128.49393a436.946824 436.946824 0 0 1-53.741929-210.582588c0-90.569788 27.467294-174.778729 74.523106-244.736 15.022682-22.335247 51.802353-45.911341 70.547576-65.078212-16.070776 21.877459-50.007341 48.031624-62.114635 72.764236-50.163953 102.484329-64.9216 226.930447-32.635483 351.159717a530.937976 530.937976 0 0 0 31.563295 88.618165c31.623529 68.716424 46.4896 90.461365 100.327905 136.348612zM615.929976 452.367059s14.179388-19.178918 47.091953-1.590212c0 0 11.974776-0.999906 22.564142-13.239718 0 0 23.768847 0.469835 45.887247 37.418165 0 0 28.370824 3.590024-6.878871-35.032847s-63.957835-24.503718-61.837553-40.743153c2.120282-16.239435 26.876988-12.010918 34.948518-32.346353 8.071529-20.323388-18.287435-41.791247-27.696188-54.970729-9.4208-13.179482 0-25.033788 30.117647-21.263059 30.117647 3.758682 37.815718-8.493176 27.660047-23.262871-10.155671-14.781741 20.564329-14.625129 38.646964-4.529694 18.070588 10.083388 77.438494 12.227765 86.847247-0.758964 9.4208-12.986729 33.888376-58.548706 50.838589-15.251577 16.938165 43.297129 62.909741 26.4192 72.679906 149.937694 9.758118 123.518494 23.9616 136.854588 6.312658 178.922918-17.648941 42.056282-46.176376-19.275294-59.705223-30.744094-13.540894-11.4688-17.950118 2.060047-17.359812 29.418917 0.590306 27.346824-3.818918 84.413741-18.528376 68.535718-14.709459-15.890071-43.875388-119.326118-69.740424-96.581271s-37.924141 86.281035-73.222023 73.631624c-35.297882-12.649412-12.806024-42.694776-42.453836-53.0432-29.647812-10.360471-59.982306-10.986918-63.319341-34.346165-3.324988-23.371294-24.961506-6.686118-20.588423-36.514635 4.361035-29.816471-7.9872-38.213271-2.264848-43.646494z" fill="#6C8CC7" /><path d="M932.779671 655.384094s-1.168565 12.143435 1.457694 10.950777c2.614212-1.180612 2.806965-1.481788 4.336941-0.144565 1.529976 1.337224 1.542024-3.614118 3.879153-3.577977 2.337129 0.024094-0.084329 2.987671 1.8432 3.084047 1.927529 0.096376 4.686306-20.672753 8.541365-31.394635 0 0 4.698353-2.770824 0.722823-11.083294-3.975529-8.312471 8.794353-20.853459 2.529882-23.021929-6.264471-2.168471-3.373176 11.336282-8.673882 16.155106-5.300706 4.818824-1.204706 10.119529-1.566118 14.697411s0.771012 5.878965-6.300611 6.915012c-7.071624 1.036047-9.481035 13.564988-6.770447 17.420047zM375.687529 282.045741s-15.335906-24.082071 14.576942-38.201223c29.912847-14.107106 8.432941-23.624282 9.974964-29.455059 1.529976-5.818729 23.624282-15.492518 37.586824-8.432941 13.950494 7.059576 17.480282 6.902965 30.527247 6.131953 13.034918-0.758965 42.514071 22.419576 16.576753 24.708517-25.937318 2.300988-18.419953 21.624471-32.225883 27.611859-13.805929 5.975341-22.515953 5.674165-41.333458 6.204235-18.805459 0.542118-6.686118 9.288282-18.347671 15.420236-11.661553 6.144-12.119341 1.686588-17.335718-3.987577zM413.768282 389.240471s-31.117553-15.733459-35.96047 15.094964c-4.842918 30.828424-4.469459 56.476612 13.324047 52.187859 17.793506-4.3008 32.647529-0.493929 50.320565-26.383059 17.673035-25.901176 22.949647-32.033129 45.899294-9.577411 22.949647 22.455718 32.418635 51.669835 53.392564 22.311152 20.973929-29.370729 16.685176-6.228329 37.056753-24.889223 20.371576-18.648847 39.791435 8.938918 72.005271 11.239906 32.213835 2.300988 7.360753-2.915388 0.6144-26.684235 0 0 11.806118-7.288471 5.517553-25.238589-6.288565-17.950118 11.420612-6.276518 12.20367-7.252329 0.783059-0.987859 30.539294-3.457506 16.889977-21.696753-13.649318-18.251294-22.383435-3.698447-33.984753-34.430494-11.601318-30.744094 10.577318-66.993694-28.672-63.704847 0 0-35.189459 34.767812-68.824847 19.178917-33.647435-15.576847-71.414965-7.686024-85.799153 15.709365-14.384188 23.395388-11.504941 18.407906-13.998682 41.803294-2.493741 23.395388-22.359341 36.370071-46.754636 32.382494-24.383247-3.987576 6.023529 28.455153 6.770447 29.948989z" fill="#6C8CC7" /><path d="M375.157459 488.785318s41.321412-10.071341 58.355953-30.201977c17.034541-20.130635 20.708894-13.938447 26.780612-36.815812 0 0 14.468518-14.239624 40.586541 38.020518 0 0 28.768376 36.189365 50.103717-10.553223 0 0 7.902871-14.143247 27.081789 19.178917 0 0 10.794165 10.300235 19.6608-11.264 0 0 13.661365 6.951153 1.4336 37.394071s9.179859 25.527718 22.299105 28.900894c13.1072 3.361129-2.999718 25.094024 17.974212 44.188612 20.973929 19.106635 43.273035 6.276518 54.091294 9.890635 10.818259 3.626165-65.222776 57.368094-62.969976 92.955106 2.240753 35.574965 19.106635 46.622118-26.961318 62.729035-46.067953 16.106918-13.854118 20.961882-15.444329 29.912847-1.602259 8.963012-16.456282 29.948988-40.02033 28.840659-23.564047-1.096282-22.576188 17.311624-36.442353-10.179765-13.866165-27.491388-42.875482-44.453647-16.420141-82.811482 26.455341-38.357835-22.467765-34.334118-15.191341-64.246965 7.288471-29.912847-26.913129-4.071906-46.561882-16.347859-19.648753-12.263906-71.836612-7.059576-68.848941-71.4752 2.999718-64.415624-26.358965-17.648941 10.492988-58.115011M217.895153 233.990024s66.812988-81.498353 83.594541-83.305412c0 0-11.685647 20.082447-11.685647 23.371294 0 3.300894-11.420612 7.625788-2.493741 19.215059 0 0 4.168282 2.951529 5.228423 8.734117 1.060141 5.794635 3.023812 7.854682 16.865883-4.324894 0 0 8.734118 0.843294 9.228047 10.553224 0.493929 9.721976 2.156424 7.071624 4.806776 9.721976 2.6624 2.650353-9.613553 14.287812-36.418259 15.865977 0 0-17.058635 1.746824-26.961317 17.456188-9.890635 15.709365-9.264188 17.2032-8.240188 16.889976 1.024-0.313224 45.321035-38.646965 58.512564-27.56367 0 0 4.553788 2.6624-9.974964 11.938635 0 0-5.963294 5.336847 9.974964 13.661365 15.950306 8.324518-10.131576 17.745318-9.758117 23.274917 0.373459 5.5296 10.938729 12.625318 2.072094 15.950306-8.854588 3.337035-32.9728-1.626353-35.791812 0.879436-2.819012 2.517835-1.108329 2.8672-3.770729 5.03567-2.6624 2.156424-7.445082 2.505788-4.577883 11.288094 2.8672 8.770259 4.397176 21.865412-30.238117 13.022871 0 0 9.661741-12.468706 4.565835-13.793882-5.107953-1.337224-7.939012-0.554165-15.552753 16.721317 0 0-24.070024 31.454871-42.718871 41.755106 0 0-6.999341 14.757647-7.445082 22.166588 0 0-4.963388 3.710494-5.650071-5.156141-0.698729-8.854588-4.144188-12.251859-6.975247-8.035388-2.831059 4.204424-3.903247 17.311624-1.951623 22.961694 1.951624 5.662118 8.228141 14.191435-6.890918 41.682824 0 0-10.011106 19.733082 7.66193 33.876329s60.018447 85.775059 46.116141 97.761882c-13.902306 11.986824 12.986729 6.529506 19.347576 11.794071 6.360847 5.264565 3.457506 8.722071 13.986636 11.312188 10.517082 2.590118 7.601694 25.527718 34.11727 39.369788 26.503529 13.842071-4.686306 34.394353 1.831153 47.272659s9.071435 37.972329-7.999247 46.98353c-17.058635 9.0112-0.120471 30.683859 7.999247 38.731294 8.119718 8.059482 47.236518 57.922259 41.285271 58.295717-5.9392 0.385506-85.004047-31.695812-125.000283-129.855247-39.996235-98.171482-53.380518-134.409035-55.585129-174.802823-2.204612-40.405835 1.120376-151.407435 28.491294-194.451577 27.358871-43.056188 12.107294-44.465694 59.994353-106.255058zM656.7936 768.265035s-15.612988 23.335153-0.349365 24.961506c15.251576 1.614306 14.179388 2.8672 17.588706-9.167812 3.409318-12.022965 7.180047-17.227294 16.516518-24.588047s7.180047-20.467953 6.288565-29.262306c-0.903529-8.8064-5.144094-16.877929-8.228142-6.107858-3.084047 10.770071 1.2288 14.5408-10.083388 16.697223-11.312188 2.156424-10.950776-1.252894-13.649318 6.999341-2.686494 8.264282-10.227953 8.083576-8.613647 13.649318 1.614306 5.565741 0.530071 6.818635 0.530071 6.818635z" fill="#6C8CC7" /><path d="M528.384 29.057506c-19.468047 0-35.273788 218.762541-35.273788 488.207059 0 269.456565 15.805741 488.207059 35.273788 488.207059-4.867012-122.048753-8.818447-298.791153-8.818447-488.207059 0-189.415906 3.951435-366.146259 8.818447-488.207059z" fill="#DEE5F6" /><path d="M18.697035 487.171012c0 28.949082 237.796894 52.452894 530.697036 52.452894s530.697035-23.503812 530.697035-52.452894c-132.674259 7.240282-324.800753 13.119247-530.697035 13.119247s-398.022776-5.878965-530.697036-13.119247z" fill="#DEE5F6" /><path d="M484.424282 10.252047c-139.251953 0-252.3136 224.087341-252.3136 500.097506 0 276.022212 113.061647 500.109553 252.3136 500.109553-120.157365-22.853271-217.714447-239.073882-217.714447-500.109553 0-261.023624 97.557082-477.244235 217.714447-500.097506z" fill="#DEE5F6" /><path d="M30.3104 527.7696c0 139.264 235.965741 252.325647 526.613082 252.325647s526.625129-113.061647 526.62513-252.325647c-24.070024 120.157365-251.759435 217.714447-526.62513 217.714447S54.380424 647.926965 30.3104 527.7696z" fill="#DEE5F6" /><path d="M477.3888 0C213.907576 0 0 223.135624 0 497.965176 0 772.806776 213.907576 995.930353 477.3888 995.930353c-241.230306-14.022776-437.067294-232.327529-437.067294-497.965177S236.158494 14.022776 477.3888 0zM643.409318 5.12c263.469176 0 477.376753 223.135624 477.376753 497.965176 0 274.8416-213.907576 497.965176-477.376753 497.965177 241.218259-14.010729 437.055247-232.315482 437.055247-497.965177 0-265.637647-195.836988-483.9424-437.055247-497.965176z" fill="#DEE5F6" /><path d="M595.437929 19.6608c139.264 0 252.325647 224.087341 252.325647 500.097506 0 276.022212-113.061647 500.109553-252.325647 500.109553C715.595294 997.014588 813.152376 780.793976 813.152376 519.758306c0-261.023624-97.557082-477.244235-217.714447-500.097506z" fill="#DEE5F6" /><path d="M28.178071 440.464565c0-139.264 238.748612-252.325647 532.829364-252.325647 294.080753 0 532.829365 113.061647 532.829365 252.325647-24.359153-120.169412-254.723012-217.726494-532.829365-217.726494S52.537224 320.295153 28.178071 440.464565z" fill="#DEE5F6" /></svg>